<svg width="24" height="22" viewBox="0 0 24 22" fill="none" xmlns="http://www.w3.org/2000/svg">
<path d="M23.3111 1.91001C22.8404 1.81224 22.3775 2.10251 22.2767 2.55794L21.6436 5.41816C19.628 2.08908 15.9283 0 11.8733 0C5.62866 0 0.548273 4.91846 0.548273 10.9643C0.548273 11.43 0.938273 11.8077 1.41943 11.8077C1.90052 11.8077 2.29059 11.43 2.29059 10.9643C2.29059 5.84864 6.58937 1.68681 11.8733 1.68681C15.3182 1.68681 18.4603 3.46828 20.1615 6.30482L17.2572 5.70222C16.7866 5.60459 16.3236 5.89479 16.2228 6.35023C16.1221 6.80566 16.4217 7.25409 16.8922 7.35165L21.8777 8.386C21.9624 8.40361 22.0484 8.40867 22.1332 8.40179C22.2745 8.39025 22.4122 8.34538 22.5334 8.26941C22.7275 8.14789 22.8636 7.95674 22.9121 7.73806L23.9805 2.91136C24.0812 2.45599 23.7815 2.00771 23.3111 1.91001Z" fill="black"/>
<path d="M22.4345 9.85877C21.9537 9.87416 21.5767 10.264 21.5926 10.7295C21.677 13.2063 20.7603 15.5665 19.011 17.3758C17.2618 19.1849 14.8896 20.2264 12.3314 20.3081C12.2248 20.3115 12.1187 20.3132 12.0125 20.3132C8.67448 20.3131 5.5995 18.6347 3.8629 15.9154L6.89083 16.7014C7.35554 16.822 7.83329 16.5551 7.9579 16.1052C8.08251 15.6552 7.8068 15.1928 7.34209 15.072L2.41733 13.7937C2.19418 13.7359 1.95632 13.7661 1.7563 13.8778C1.55614 13.9896 1.41013 14.1738 1.35027 14.3899L0.0299419 19.1579C-0.0946685 19.6078 0.181036 20.0702 0.645746 20.1909C0.721363 20.2106 0.797188 20.22 0.871899 20.22C1.25646 20.22 1.60848 19.9714 1.71281 19.5947L2.45497 16.915C4.51954 20.0623 8.11324 22.0001 12.0121 22C12.1373 22 12.2632 21.998 12.389 21.994C15.4123 21.8972 18.2158 20.6665 20.2831 18.5285C22.3504 16.3904 23.4338 13.6009 23.334 10.6738C23.3182 10.2084 22.9153 9.84224 22.4345 9.85877Z" fill="black"/>
</svg>
