<svg width="17" height="17" viewBox="0 0 17 17" fill="none" xmlns="http://www.w3.org/2000/svg">
<path d="M15.6789 7.70247L12.4876 10.8927C10.7262 12.6551 7.86886 12.6551 6.10722 10.8927C5.82973 10.616 5.61265 10.3042 5.42201 9.9827L6.90483 8.5C6.97532 8.42892 7.06236 8.38819 7.14553 8.34021C7.24804 8.69045 7.427 9.02202 7.70244 9.2975C8.58207 10.1778 10.0134 10.1766 10.8925 9.2975L14.0828 6.10733C14.9631 5.22711 14.9631 3.79611 14.0828 2.91656C13.2037 2.03701 11.7727 2.03701 10.8925 2.91656L9.75805 4.05225C8.83743 3.69379 7.84557 3.59741 6.88002 3.73891L9.29748 1.32153C11.0599 -0.440511 13.9165 -0.440511 15.6789 1.32153C17.4404 3.0835 17.4404 5.94054 15.6789 7.70247ZM7.24246 12.9483L6.10718 14.084C5.22762 14.9631 3.79621 14.9631 2.91651 14.084C2.03688 13.2037 2.03688 11.7727 2.91651 10.8927L6.10718 7.70247C6.98744 6.82232 8.41788 6.82232 9.29744 7.70247C9.57225 7.97735 9.75139 8.30885 9.85487 8.65865C9.93853 8.61003 10.0245 8.57053 10.0949 8.49997L11.5776 7.01787C11.3882 6.69507 11.17 6.38441 10.8924 6.1074C9.13124 4.34536 6.27363 4.34536 4.51158 6.1074L1.3214 9.29769C-0.440466 11.0603 -0.440466 13.9165 1.3214 15.6789C3.08345 17.4404 5.94039 17.4404 7.7024 15.6789L10.1205 13.261C9.15442 13.4033 8.1623 13.3061 7.24246 12.9483Z" fill="white"/>
</svg>
