<svg width="58" height="75" viewBox="0 0 58 75" fill="none" xmlns="http://www.w3.org/2000/svg">
<path d="M14.9143 48.3561V39.1895H9.11426V48.3561H14.9143Z" fill="#FF0000"/>
<path d="M21.5427 48.3561V39.1895H16.5713V48.3561H21.5427Z" fill="#FF0000"/>
<path fill-rule="evenodd" clip-rule="evenodd" d="M15.8385 68.3333L49.887 72.5912L56.1923 7.88835L45.5714 6.71197V58.0422L35.6286 68.3333H15.8385ZM45.5714 0V5.04751L58 6.42411L51.3714 74.4441L2.50631 68.3333H0V68.0199V0H45.5714ZM36.4574 30.0228V24.1895H38.1145V37.5228H36.4574V31.6895H33.1431V30.0228H36.4574ZM36.457 42.5226V48.356H23.1999V33.356H21.5427L21.5816 37.5226H9.11417V33.356H7.45703V49.1893V50.0455H38.0882V42.5226H36.457ZM9.11417 48.356V39.1893H14.9142V48.356H9.11417ZM16.5713 48.356V39.1893H21.5427V48.356H16.5713ZM7.45703 31.6895V11.6667C17.6761 11.6667 27.8952 11.6771 38.1142 11.6895V19.1895H36.457V13.3562H23.1999V30.0359L30.657 30.0228V31.6895H18.2285V30.0359L21.5427 30.0228V13.3562H9.11417V30.0228H16.5713V31.6895H7.45703ZM43.9143 1.64658H1.65714V66.6868H33.9712V56.8071H43.9143V1.64658ZM35.6283 58.4537H43.0855L35.6283 65.8633V58.4537Z" fill="black"/>
</svg>
