<svg width="32" height="29" viewBox="0 0 32 29" fill="none" xmlns="http://www.w3.org/2000/svg">
<path d="M14.0475 11.1254C13.9396 11.1254 13.8361 11.1685 13.7598 11.2452C13.6835 11.3219 13.6407 11.426 13.6407 11.5344C13.6407 11.6429 13.6835 11.747 13.7598 11.8237C13.8361 11.9004 13.9396 11.9435 14.0475 11.9435H14.3729C14.4808 11.9435 14.5842 11.9004 14.6605 11.8237C14.7368 11.747 14.7797 11.6429 14.7797 11.5344C14.7797 11.426 14.7368 11.3219 14.6605 11.2452C14.5842 11.1685 14.4808 11.1254 14.3729 11.1254H14.0475Z" fill="white"/>
<path d="M16 11.9435H31.5932C31.7011 11.9435 31.8046 11.9004 31.8809 11.8237C31.9571 11.747 32 11.6429 32 11.5344V5.97173C32 5.86325 31.9571 5.75921 31.8809 5.68251C31.8046 5.6058 31.7011 5.56271 31.5932 5.56271H8.61033V0.818045H23.3897V4.33564C23.3897 4.44412 23.4325 4.54816 23.5088 4.62486C23.5851 4.70157 23.6886 4.74466 23.7964 4.74466C23.9043 4.74466 24.0078 4.70157 24.0841 4.62486C24.1604 4.54816 24.2032 4.44412 24.2032 4.33564V0.409023C24.2032 0.300543 24.1604 0.196506 24.0841 0.1198C24.0078 0.043093 23.9043 0 23.7964 0H8.20355C8.09567 0 7.9922 0.043093 7.91592 0.1198C7.83963 0.196506 7.79677 0.300543 7.79677 0.409023V5.56271H0.406777C0.298893 5.56271 0.195428 5.6058 0.119142 5.68251C0.0428567 5.75921 0 5.86325 0 5.97173V11.5344C0 11.6429 0.0428567 11.747 0.119142 11.8237C0.195428 11.9004 0.298893 11.9435 0.406777 11.9435H7.79677V16.6881H0.406777C0.298893 16.6881 0.195428 16.7312 0.119142 16.8079C0.0428567 16.8846 0 16.9887 0 17.0971V22.6598C0 22.7683 0.0428567 22.8724 0.119142 22.9491C0.195428 23.0258 0.298893 23.0689 0.406777 23.0689H23.3897V27.8135H8.61033V25.932C8.61033 25.8235 8.56747 25.7195 8.49119 25.6428C8.4149 25.5661 8.31143 25.523 8.20355 25.523C8.09567 25.523 7.9922 25.5661 7.91592 25.6428C7.83963 25.7195 7.79677 25.8235 7.79677 25.932V28.2226C7.79677 28.331 7.83963 28.4351 7.91592 28.5118C7.9922 28.5885 8.09567 28.6316 8.20355 28.6316H23.7964C23.9043 28.6316 24.0078 28.5885 24.0841 28.5118C24.1604 28.4351 24.2032 28.331 24.2032 28.2226V23.0689H31.5932C31.7011 23.0689 31.8046 23.0258 31.8809 22.9491C31.9571 22.8724 32 22.7683 32 22.6598V17.0971C32 16.9887 31.9571 16.8846 31.8809 16.8079C31.8046 16.7312 31.7011 16.6881 31.5932 16.6881H24.2032V13.1705C24.2032 13.062 24.1604 12.958 24.0841 12.8813C24.0078 12.8046 23.9043 12.7615 23.7964 12.7615C23.6886 12.7615 23.5851 12.8046 23.5088 12.8813C23.4325 12.958 23.3897 13.062 23.3897 13.1705V16.6881H17.6271C17.5192 16.6881 17.4158 16.7312 17.3395 16.8079C17.2632 16.8846 17.2203 16.9887 17.2203 17.0971C17.2203 17.2056 17.2632 17.3097 17.3395 17.3864C17.4158 17.4631 17.5192 17.5062 17.6271 17.5062H31.1864V22.2508H16.4068V17.0971C16.4068 16.9887 16.3639 16.8846 16.2876 16.8079C16.2113 16.7312 16.1079 16.6881 16 16.6881H8.61033V11.9435H12.5287C12.6366 11.9435 12.7401 11.9004 12.8164 11.8237C12.8926 11.747 12.9355 11.6429 12.9355 11.5344C12.9355 11.426 12.8926 11.3219 12.8164 11.2452C12.7401 11.1685 12.6366 11.1254 12.5287 11.1254H0.813554V6.38075H15.5932V11.5344C15.5932 11.6429 15.6361 11.747 15.7124 11.8237C15.7886 11.9004 15.8921 11.9435 16 11.9435ZM15.5932 22.2508H14.9424C14.8107 21.6459 14.5287 21.0844 14.1227 20.6187C13.7167 20.153 13.2 19.7984 12.6208 19.5879C12.5193 19.5511 12.4074 19.5564 12.3098 19.6025C12.2122 19.6487 12.1367 19.7319 12.1001 19.834C12.0636 19.9361 12.0688 20.0485 12.1147 20.1467C12.1606 20.2449 12.2434 20.3207 12.3449 20.3575C12.7654 20.5095 13.1436 20.7607 13.4475 21.0901C13.7515 21.4195 13.9724 21.8175 14.0917 22.2505H3.50902C3.84778 21.6896 4.33689 21.2099 5.00824 21.2688C6.81368 21.4289 8.15799 21.1929 9.12091 20.5473C9.7017 20.2714 10.3378 20.1333 10.98 20.1439C11.0879 20.1434 11.1912 20.0998 11.2672 20.0228C11.3431 19.9458 11.3855 19.8415 11.385 19.733C11.3846 19.6246 11.3412 19.5207 11.2646 19.4444C11.188 19.368 11.0844 19.3253 10.9765 19.3258H10.9729C10.1723 19.3104 9.38054 19.4963 8.66955 19.8667C7.86641 20.402 6.69294 20.5954 5.0795 20.4528C4.0707 20.3634 3.19011 20.9999 2.58482 22.2525H0.813554V17.5062H15.5932V22.2508ZM31.1864 11.1254H19.0228C19.4896 10.8507 19.9031 10.4934 20.2435 10.0708C20.7769 9.26616 21.9477 8.76192 23.362 9.44907C25.05 10.2671 27.4643 10.4739 28.4871 10.3021C28.5402 10.2938 28.5912 10.275 28.6371 10.2468C28.683 10.2186 28.7228 10.1815 28.7544 10.1376C28.7859 10.0938 28.8084 10.0441 28.8207 9.99146C28.833 9.9388 28.8348 9.88421 28.826 9.83086C28.8172 9.7775 28.7979 9.72643 28.7693 9.68061C28.7408 9.63479 28.7034 9.59512 28.6595 9.56391C28.6156 9.53269 28.5659 9.51055 28.5134 9.49876C28.4609 9.48696 28.4066 9.48576 28.3537 9.49521C27.4363 9.64802 25.174 9.41995 23.7157 8.71218C21.8722 7.81691 20.2721 8.55348 19.5666 9.61726C19.4664 9.76811 19.0577 10.2151 17.4514 11.1257H16.4068V6.38075H31.1864V11.1254Z" fill="white"/>
<path d="M8.20355 25.0322C8.31143 25.0322 8.4149 24.9891 8.49119 24.9124C8.56747 24.8357 8.61033 24.7316 8.61033 24.6232V24.2959C8.61033 24.1875 8.56747 24.0834 8.49119 24.0067C8.4149 23.93 8.31143 23.8869 8.20355 23.8869C8.09567 23.8869 7.9922 23.93 7.91592 24.0067C7.83963 24.0834 7.79677 24.1875 7.79677 24.2959V24.6232C7.79677 24.7316 7.83963 24.8357 7.91592 24.9124C7.9922 24.9891 8.09567 25.0322 8.20355 25.0322Z" fill="white"/>
</svg>
