<svg width="20" height="15" viewBox="0 0 20 15" fill="none" xmlns="http://www.w3.org/2000/svg">
<path d="M18.3877 15H1.61228C0.723591 15 0 14.2373 0 13.2991V1.70091C0 0.762689 0.723591 0 1.61228 0H18.3877C19.2764 0 20 0.762689 20 1.70091V13.2991C20 14.2373 19.2764 15 18.3877 15ZM1.61228 0.680365C1.07894 0.680365 0.644912 1.13825 0.644912 1.70091V13.2991C0.644912 13.8618 1.07894 14.3196 1.61228 14.3196H18.3877C18.9211 14.3196 19.3551 13.8618 19.3551 13.2991V1.70091C19.3551 1.13825 18.9211 0.680365 18.3877 0.680365H1.61228Z" fill="white"/>
<path d="M10 9.20942C9.57113 9.20942 9.14227 9.05906 8.81594 8.75902L0.574616 1.18179C0.440475 1.05797 0.426287 0.843652 0.543661 0.702136C0.661034 0.55926 0.864827 0.545653 0.998968 0.668799L9.23965 8.24602C9.65239 8.62498 10.3489 8.6243 10.7604 8.24602L18.9991 0.669479C19.1326 0.544972 19.3357 0.55926 19.4544 0.702817C19.5718 0.844333 19.5576 1.05865 19.4234 1.18247L11.1841 8.75833C10.8577 9.05906 10.4289 9.20942 10 9.20942Z" fill="white"/>
</svg>
