<svg width="20" height="20" viewBox="0 0 20 20" fill="none" xmlns="http://www.w3.org/2000/svg">
<path d="M16.0744 20C15.2423 20 14.2373 19.7915 13.132 19.3744C10.7089 18.4609 8.0726 16.6553 5.70873 14.2915C3.34418 11.9269 1.53864 9.28995 0.624439 6.86689C-0.206349 4.6638 -0.208367 2.85558 0.61973 2.02816C0.738798 1.90909 0.859885 1.78128 0.985008 1.64943C1.74045 0.854974 2.59411 -0.0390437 3.7256 0.00131823C4.50526 0.0336078 5.26071 0.517951 6.03431 1.48058C8.32016 4.32341 7.28958 5.3365 6.09688 6.51103L5.88632 6.71957C5.69124 6.91465 5.32259 7.81808 8.75203 11.2475C9.87141 12.3669 10.826 13.1862 11.5888 13.682C12.0691 13.9941 12.9282 14.4664 13.2807 14.1139L13.4926 13.9C14.6658 12.71 15.6789 11.6827 18.5197 13.9666C19.4823 14.7402 19.966 15.4949 19.9983 16.2759C20.0447 17.4067 19.1439 18.2624 18.3488 19.0172C18.2176 19.1423 18.0898 19.2634 17.9708 19.3818C17.5597 19.7935 16.9025 20 16.0744 20ZM3.64487 0.672672C2.84099 0.672672 2.11515 1.43686 1.47272 2.11292C1.34356 2.24881 1.21844 2.38066 1.09533 2.50376C0.478462 3.11995 0.541024 4.73914 1.25409 6.6301C2.13533 8.96571 3.88637 11.5179 6.185 13.8165C8.48295 16.1138 11.0338 17.8649 13.3701 18.7454C15.2611 19.4598 16.8803 19.5204 17.4958 18.9048C17.6189 18.7817 17.7508 18.6566 17.8867 18.5281C18.5775 17.8716 19.3612 17.1276 19.3269 16.3022C19.3034 15.7351 18.8903 15.1249 18.0992 14.4892C15.732 12.5855 15.0701 13.2575 13.9722 14.3709L13.7569 14.5881C13.2322 15.1135 12.3799 14.9971 11.2229 14.2451C10.4203 13.723 9.42877 12.8741 8.27711 11.7218C5.4309 8.87624 4.52073 7.13462 5.41139 6.24195L5.62598 6.03005C6.742 4.9322 7.41537 4.2696 5.51095 1.90102C4.8739 1.1106 4.26443 0.697562 3.69734 0.673345C3.67985 0.672672 3.66236 0.672672 3.64487 0.672672Z" fill="white"/>
</svg>
