<svg width="14" height="18" viewBox="0 0 14 18" fill="none" xmlns="http://www.w3.org/2000/svg">
<path d="M12.1052 1.84453C10.8871 0.655097 9.20129 0 7.35843 0C4.54337 0 2.81198 1.17371 1.85525 2.15827C0.676139 3.37162 0 4.98272 0 6.57854C0 8.58221 0.82397 10.1201 2.20382 10.6922C2.29645 10.7308 2.38966 10.7503 2.48104 10.7503C2.77214 10.7503 3.00279 10.5566 3.0827 10.2458C3.12927 10.0675 3.23721 9.62767 3.28412 9.43672C3.38458 9.05965 3.30342 8.87829 3.08435 8.61571C2.68527 8.13541 2.49942 7.56746 2.49942 6.8283C2.49942 4.63276 4.10672 2.29934 7.08571 2.29934C9.4494 2.29934 10.9177 3.66579 10.9177 5.86539C10.9177 7.25344 10.6238 8.5389 10.0899 9.48514C9.71886 10.1426 9.06647 10.9264 8.06493 10.9264C7.63183 10.9264 7.24279 10.7454 6.9973 10.4299C6.76539 10.1317 6.68896 9.74645 6.78223 9.34494C6.88759 8.89129 7.03126 8.41809 7.1703 7.96061C7.42389 7.12508 7.66362 6.33593 7.66362 5.70632C7.66362 4.62939 7.01271 3.90579 6.04405 3.90579C4.813 3.90579 3.84856 5.17755 3.84856 6.80107C3.84856 7.5973 4.05661 8.19283 4.15079 8.42151C3.99571 9.08984 3.07402 13.0632 2.89919 13.8125C2.79811 14.2499 2.18915 17.7044 3.19708 17.9799C4.32955 18.2894 5.34182 14.9249 5.44485 14.5447C5.52835 14.2355 5.82053 13.0663 5.99958 12.3476C6.54627 12.8832 7.42652 13.2453 8.28302 13.2453C9.89769 13.2453 11.3498 12.5062 12.3719 11.1644C13.3631 9.86291 13.9091 8.04891 13.9091 6.0568C13.9091 4.49941 13.2516 2.96407 12.1052 1.84453Z" fill="white"/>
</svg>
