<svg width="24" height="21" viewBox="0 0 24 21" fill="none" xmlns="http://www.w3.org/2000/svg">
<path d="M23.8778 0.0841732C23.771 -0.00441669 23.6189 -0.0249701 23.4901 0.0315348L0.207591 10.2589C0.0822456 10.3139 0.00152815 10.4322 2.1427e-05 10.5628C-0.0014853 10.6935 0.0765774 10.8133 0.200703 10.8709L6.78961 13.928C6.91044 13.9841 7.05451 13.9714 7.16242 13.8952L13.5687 9.36841L8.53949 14.2592C8.46774 14.329 8.43115 14.4245 8.43904 14.5215L8.93978 20.6868C8.9509 20.8234 9.04776 20.9402 9.18545 20.983C9.22225 20.9944 9.26007 21 9.29745 21C9.39997 21 9.49971 20.9584 9.56909 20.8824L13.0663 17.0511L17.3895 19.004C17.4833 19.0464 17.592 19.0482 17.6873 19.009C17.7827 18.9697 17.8553 18.8933 17.8864 18.7996L23.9835 0.440771C24.0261 0.312567 23.9846 0.172763 23.8778 0.0841732Z" fill="white"/>
</svg>
