<svg width="125" height="215" viewBox="0 0 125 215" fill="none" xmlns="http://www.w3.org/2000/svg">
<path opacity="0.1" d="M57.1823 23.9813C52.2099 23.9813 47.2376 24.582 42.2652 25.7834C37.2928 26.9847 32.4125 28.5558 27.6243 30.4965C23.2044 32.3447 19.337 34.2854 16.0221 36.3185C12.7993 38.3516 9.89871 40.2461 7.32044 42.0019H5.66298V12.7531C11.6483 9.51859 19.7514 6.60756 29.9724 4.01999C40.2854 1.34 50.0921 0 59.3923 0C68.6924 0 76.7956 0.970342 83.7017 2.91103C90.6998 4.75929 97.0074 7.67032 102.624 11.6441C108.702 16.0799 113.26 21.4399 116.298 27.724C119.429 34.0082 120.994 41.355 120.994 49.7647C120.994 61.1315 117.265 71.1122 109.807 79.7066C102.348 88.3011 93.4162 93.7535 83.011 96.0638V98.0045C87.3389 98.8362 91.9429 100.269 96.8232 102.302C101.796 104.335 106.4 107.338 110.635 111.312C114.871 115.286 118.324 120.415 120.994 126.699C123.665 132.891 125 140.469 125 149.433C125 158.766 123.389 167.361 120.166 175.216C117.035 182.979 112.569 189.864 106.768 195.87C100.783 202.155 93.5543 206.914 85.0829 210.148C76.6114 213.383 66.9889 215 56.2155 215C45.9024 215 35.6814 213.752 25.5525 211.257C15.4236 208.762 6.90608 205.759 0 202.247V172.998H1.9337C7.73481 177.249 15.5157 181.315 25.2762 185.197C35.0368 189.078 44.7974 191.019 54.558 191.019C60.175 191.019 65.7919 190.141 71.4088 188.385C77.1179 186.537 81.86 183.579 85.6354 179.513C89.3186 175.447 92.1271 170.965 94.0608 166.067C95.9945 161.169 96.9613 154.977 96.9613 147.492C96.9613 140.006 95.8564 133.861 93.6464 129.055C91.5285 124.25 88.5359 120.461 84.6685 117.689C80.8011 114.916 76.1971 113.022 70.8564 112.005C65.6077 110.896 59.8987 110.342 53.7293 110.342H41.9889V87.3307H51.105C63.5359 87.3307 73.6188 84.3735 81.3536 78.4591C89.1805 72.5446 93.0939 63.9501 93.0939 52.6757C93.0939 47.5005 92.081 43.0647 90.0552 39.3681C88.0295 35.5792 85.4512 32.5758 82.3204 30.3578C78.8214 27.9551 74.954 26.2916 70.7182 25.3675C66.4825 24.4434 61.9705 23.9813 57.1823 23.9813Z" fill="white"/>
</svg>
