<svg width="60" height="60" viewBox="0 0 60 60" fill="none" xmlns="http://www.w3.org/2000/svg">
<path d="M43.9998 26H36.6665V30.6667H43.9998V26Z" fill="#FF0000"/>
<path d="M43.9998 20.667H36.6665V24.667H43.9998V20.667Z" fill="#FF0000"/>
<path d="M0 0V48H23.3333V56H17.3333V60H42.6667V56H36.6667V48H60V0H0ZM41.3333 57.3333V58.6667H18.6667V57.3333H41.3333ZM24.6667 56V48H35.3333V56H24.6667ZM58.6667 46.6667H1.33333V1.33333H58.6667V46.6667Z" fill="#2A3045"/>
<path d="M56.6668 3.33301H3.3335V37.9997H56.6668V3.33301ZM55.3335 36.6663H4.66683V4.66634H55.3335V36.6663Z" fill="#2A3045"/>
<path d="M24.6665 8.66634H29.3332V11.333H30.6665V8.66634H35.3332V7.33301H24.6665V8.66634Z" fill="#2A3045"/>
<path d="M39.3333 8.66654H44V19.3332H32V20.6665L35.3333 20.6353V30.6665H32V31.9999H44.6667H45.3516V7.354H39.3333V8.66654ZM44 30.6665H36.6667V25.9999H44V30.6665ZM44 24.6665H36.6667V20.6665H44V24.6665Z" fill="#2A3045"/>
<path d="M14.6484 31.9997H30.6666V24.6663H29.3333V30.6663H16V20.6663H29.3333L29.3437 23.333H30.6666V13.333H29.3333L29.3437 19.333H16V8.66634H20.6666V7.33301H14.6666C14.6566 15.5552 14.6484 23.7775 14.6484 31.9997Z" fill="#2A3045"/>
</svg>
