<svg width="70" height="70" viewBox="0 0 70 70" fill="none" xmlns="http://www.w3.org/2000/svg">
<path fill-rule="evenodd" clip-rule="evenodd" d="M0 0.989744L0.989739 0L7.98827 6.99854H62.0116L69.0101 0L69.9999 0.98974L62.9868 8.0028V61.9969L70 69.01L69.0101 69.9998L61.9972 62.9868H8.00268L0.989744 69.9998L0 69.01L6.99854 62.0114V7.98827L0 0.989744ZM8.39824 8.39824H61.5871V61.5871H8.39824V8.39824ZM52.4889 20.9956H42.2682L35.4526 13.9971L28.8543 20.9956H17.4962V40.9888V45.4905H52.4889V20.9956ZM18.8959 41.4402V44.0908H26.2256L29.094 40.6761L24.353 33.8609L18.8959 41.4402ZM28.0536 44.0908H40.1664L33.8348 37.2085L28.0536 44.0908ZM42.0684 44.0908H51.0892V36.2378L46.026 32.0682L38.7715 40.5071L42.0684 44.0908ZM51.0892 34.4245L46.9389 31.0062L45.8775 30.0938L37.8173 39.47L33.787 35.0892L30.0267 39.5657L24.3726 31.4382L18.8959 39.0447V22.3953H51.0892V34.4245ZM40.3144 20.9956H30.7781L35.469 16.0201L40.3144 20.9956ZM31.4936 27.9944C31.4936 29.927 29.927 31.4936 27.9944 31.4936C26.0618 31.4936 24.4951 29.927 24.4951 27.9944C24.4951 26.0618 26.0618 24.4951 27.9944 24.4951C29.927 24.4951 31.4936 26.0618 31.4936 27.9944Z" fill="black"/>
<path d="M30.7936 27.9942C30.7936 29.5403 29.5403 30.7936 27.9942 30.7936C26.4482 30.7936 25.1948 29.5403 25.1948 27.9942C25.1948 26.4482 26.4482 25.1948 27.9942 25.1948C29.5403 25.1948 30.7936 26.4482 30.7936 27.9942Z" fill="#FF0000"/>
</svg>
