<svg width="62" height="62" viewBox="0 0 62 62" fill="none" xmlns="http://www.w3.org/2000/svg">
<path d="M15.1555 14.4668H22.7333V28.2446H15.1555V14.4668Z" fill="#FF0000"/>
<path d="M1.37769 52.3555H19.2888V60.6221H1.37769V52.3555Z" fill="#FF0000"/>
<path d="M0 0H13.7778V1.37778H1.37778V60.6222H31.6889V62H0V0Z" fill="#2A3045"/>
<path d="M24.1111 1.37778V0H62V16.5333H60.6222V1.37778H24.1111Z" fill="#2A3045"/>
<path d="M60.6223 26.8667V60.6223H36.5112V62H62.0001V26.8667H60.6223Z" fill="#2A3045"/>
<path d="M30.311 0H31.6888V20.6667H30.311V0Z" fill="#2A3045"/>
<path d="M36.5112 51.6665H37.889V61.9998H36.5112V51.6665Z" fill="#2A3045"/>
<path d="M30.311 26.8667H31.6888V34.4445H30.311V26.8667Z" fill="#2A3045"/>
<path d="M15.1555 14.4668H16.5333V28.2446H15.1555V14.4668Z" fill="#2A3045"/>
<path d="M22.7333 14.4668V15.8446H15.1555V14.4668H22.7333Z" fill="#2A3045"/>
<path d="M22.7333 26.8667V28.2445H15.1555V26.8667H22.7333Z" fill="#2A3045"/>
<path d="M21.3555 14.4668H22.7332V28.2446H21.3555V14.4668Z" fill="#2A3045"/>
<path d="M24.1111 33.0664H25.4889V37.8886H24.1111V33.0664Z" fill="#2A3045"/>
<path d="M37.8889 0H39.2667V13.7778H37.8889V0Z" fill="#2A3045"/>
<path d="M51.6667 12.3999V13.7777H37.8889V12.3999H51.6667Z" fill="#2A3045"/>
<path d="M62 41.333V42.7108H50.9778V41.333H62Z" fill="#2A3045"/>
<path d="M52.3556 61.9997H50.9778V41.333H52.3556V61.9997Z" fill="#2A3045"/>
<path d="M20.6666 61.9998H19.2888V50.9775H20.6666V61.9998Z" fill="#2A3045"/>
<path d="M0 52.3553L1.80674e-07 50.9775H20.6667V52.3553H0Z" fill="#2A3045"/>
<path d="M50.2888 0H51.6666V13.7778H50.2888V0Z" fill="#2A3045"/>
<path d="M36.5112 33.0664H37.889V46.1553H36.5112V33.0664Z" fill="#2A3045"/>
<path d="M37.8889 33.0664V34.4442H0L6.02247e-08 33.0664H37.8889Z" fill="#2A3045"/>
</svg>
