<svg width="66" height="42" viewBox="0 0 66 42" fill="none" xmlns="http://www.w3.org/2000/svg">
<path d="M49.8667 11.8105H59.2778L66 22.1263H49.8667V11.8105Z" fill="#FF0000"/>
<path fill-rule="evenodd" clip-rule="evenodd" d="M58.485 13.2842H51.3334V20.6527H63.2866L58.485 13.2842ZM59.2778 11.8105H49.8667V22.1263H66L59.2778 11.8105Z" fill="black"/>
<path fill-rule="evenodd" clip-rule="evenodd" d="M12.4667 39.8105C15.3018 39.8105 17.6 37.5012 17.6 34.6526C17.6 31.8039 15.3018 29.4947 12.4667 29.4947C9.63163 29.4947 7.33337 31.8039 7.33337 34.6526C7.33337 37.5012 9.63163 39.8105 12.4667 39.8105ZM12.4667 41.2842C16.1118 41.2842 19.0667 38.315 19.0667 34.6526C19.0667 30.99 16.1118 28.021 12.4667 28.021C8.82159 28.021 5.8667 30.99 5.8667 34.6526C5.8667 38.315 8.82159 41.2842 12.4667 41.2842Z" fill="black"/>
<path fill-rule="evenodd" clip-rule="evenodd" d="M55.7333 39.8105C58.5684 39.8105 60.8666 37.5012 60.8666 34.6526C60.8666 31.8039 58.5684 29.4947 55.7333 29.4947C52.8982 29.4947 50.6 31.8039 50.6 34.6526C50.6 37.5012 52.8982 39.8105 55.7333 39.8105ZM55.7333 41.2842C59.3784 41.2842 62.3333 38.315 62.3333 34.6526C62.3333 30.99 59.3784 28.021 55.7333 28.021C52.0882 28.021 49.1333 30.99 49.1333 34.6526C49.1333 38.315 52.0882 41.2842 55.7333 41.2842Z" fill="black"/>
<path fill-rule="evenodd" clip-rule="evenodd" d="M1.46667 1.47368H45.4667V34.6527H18.3333V36.1263H45.4667H46.9333V34.6527V1.47368V0H45.4667H1.46667H0V1.47368V34.6527V36.1263H1.46667H6.6V34.6527H1.46667V1.47368Z" fill="black"/>
<path fill-rule="evenodd" clip-rule="evenodd" d="M46.9332 11.0738H57.2297L64.5332 21.5205V34.6527H61.5999V36.1264H64.5332H65.9999V34.6527V21.0546L57.9918 9.6001H46.9332H45.4666V11.0738V34.6527V36.1264H46.9332H49.8666V34.6527H46.9332V11.0738Z" fill="black"/>
</svg>
