<svg width="46" height="46" viewBox="0 0 46 46" fill="none" xmlns="http://www.w3.org/2000/svg">
<path fill-rule="evenodd" clip-rule="evenodd" d="M44.9778 16.6322L23 1.24778L1.02222 16.6322V44.9778H44.9778V16.6322ZM23 0L46 16.1V46H0V16.1L23 0Z" fill="#2A3045"/>
<path fill-rule="evenodd" clip-rule="evenodd" d="M10.7333 25.0444H4.59998V31.1778H10.7333V25.0444ZM3.57776 24.0222V32.2H11.7555V24.0222H3.57776Z" fill="black"/>
<path fill-rule="evenodd" clip-rule="evenodd" d="M20.9555 25.0444H14.8221V31.1778H20.9555V25.0444ZM13.7999 24.0222V32.2H21.9777V24.0222H13.7999Z" fill="#FF0000"/>
<path fill-rule="evenodd" clip-rule="evenodd" d="M10.7333 35.2669H4.59998V41.4002H10.7333V35.2669ZM3.57776 34.2446V42.4224H11.7555V34.2446H3.57776Z" fill="black"/>
<path fill-rule="evenodd" clip-rule="evenodd" d="M20.9555 35.2669H14.8221V41.4002H20.9555V35.2669ZM13.7999 34.2446V42.4224H21.9777V34.2446H13.7999Z" fill="black"/>
<path fill-rule="evenodd" clip-rule="evenodd" d="M31.1776 35.2669H25.0443V41.4002H31.1776V35.2669ZM24.0221 34.2446V42.4224H32.1999V34.2446H24.0221Z" fill="black"/>
<path fill-rule="evenodd" clip-rule="evenodd" d="M41.4001 35.2669H35.2667V41.4002H41.4001V35.2669ZM34.2445 34.2446V42.4224H42.4223V34.2446H34.2445Z" fill="#FF0000"/>
</svg>
