<svg width="50" height="56" viewBox="0 0 50 56" fill="none" xmlns="http://www.w3.org/2000/svg">
<path d="M21.1111 37.1135H36.1111V48.436H21.1111V37.1135Z" fill="#FF0000"/>
<path d="M6.11108 0H21.1111V11.3227H6.11108V0Z" fill="#FF0000"/>
<path fill-rule="evenodd" clip-rule="evenodd" d="M36.1111 1.25808H7.22219V47.1778H36.1111V1.25808ZM6.11108 0V48.4359H37.2222V0H6.11108Z" fill="#2A3045"/>
<path fill-rule="evenodd" clip-rule="evenodd" d="M36.1111 1.2581H7.22219V10.6938H36.1111V1.2581ZM6.11108 0V11.9519H37.2222V0H6.11108Z" fill="#2A3045"/>
<path fill-rule="evenodd" clip-rule="evenodd" d="M36.1111 37.742H7.22219V47.1777H36.1111V37.742ZM6.11108 36.4839V48.4358H37.2222V36.4839H6.11108Z" fill="#2A3045"/>
<path fill-rule="evenodd" clip-rule="evenodd" d="M48.8889 24.5325H37.2222V47.1778H48.8889V24.5325ZM36.1111 23.2744V48.4359H50V23.2744H36.1111Z" fill="#2A3045"/>
<path d="M21.1111 0.629395H22.2222V11.9519H21.1111V0.629395Z" fill="#2A3045"/>
<path d="M21.1111 37.1135H22.2222V48.436H21.1111V37.1135Z" fill="#2A3045"/>
<path fill-rule="evenodd" clip-rule="evenodd" d="M0.785676 45.3318L0 46.2214L2.26406 48.7504H2.26407L4.45837 46.1802L3.6727 45.2905L2.21097 46.9457L0.785676 45.3318Z" fill="#2A3045"/>
<path fill-rule="evenodd" clip-rule="evenodd" d="M3.6727 3.41861L4.45837 2.52897L2.19432 0L2.19431 6.7065e-06L0 2.57024L0.785676 3.45987L2.24741 1.80474L3.6727 3.41861Z" fill="#2A3045"/>
<path d="M2.77759 1.2583V47.8068H1.6665V1.2583H2.77759Z" fill="#2A3045"/>
<path fill-rule="evenodd" clip-rule="evenodd" d="M9.13018 51.8415L8.34452 50.9519L6.11108 53.5154L8.38096 55.9999L9.16663 55.1103L7.70491 53.4553L9.13018 51.8415Z" fill="#2A3045"/>
<path fill-rule="evenodd" clip-rule="evenodd" d="M46.7029 55.1103L47.4886 55.9999L49.722 53.4364L47.4522 50.9519L46.6665 51.8415L48.1282 53.4966L46.7029 55.1103Z" fill="#2A3045"/>
<path d="M48.3333 54.097H7.22217V52.8389H48.3333V54.097Z" fill="#2A3045"/>
</svg>
