<svg width="37" height="49" viewBox="0 0 37 49" fill="none" xmlns="http://www.w3.org/2000/svg">
<path d="M12.4233 34.7814L12.4233 28.8398L8.64232 28.8398L8.64232 34.7814L12.4233 34.7814Z" fill="#FF0000"/>
<path d="M16.7445 34.7814L16.7445 28.8398L13.5036 28.8398L13.5036 34.7814L16.7445 34.7814Z" fill="#FF0000"/>
<path d="M26.4672 19.1172L26.4672 22.8982L24.3066 22.8982L24.3066 23.9785L26.4672 23.9785L26.4672 27.7595L27.5475 27.7595L27.5475 19.1172L26.4672 19.1172Z" fill="#2A3045"/>
<path d="M26.4671 31.0004L26.4671 34.7815L17.8248 34.7815L17.8248 25.0588L16.7445 25.0588L16.7698 27.7596L8.64229 27.7596L8.64229 25.0588L7.56199 25.0588L7.56199 35.3216L7.56199 35.8765L27.5305 35.8765L27.5305 31.0004L26.4671 31.0004ZM8.64229 34.7815L8.64229 28.8399L12.4233 28.8399L12.4233 34.7815L8.64229 34.7815ZM13.5036 34.7815L13.5036 28.8399L16.7445 28.8399L16.7445 34.7815L13.5036 34.7815Z" fill="#2A3045"/>
<path d="M7.56208 11.0002L7.56208 23.9785L13.5037 23.9785L13.5037 22.8982L8.64238 22.8982L8.64238 12.0953L16.7446 12.0953L16.7446 22.8982L14.584 22.9067L14.584 23.9785L22.6862 23.9785L22.6862 22.8982L17.8249 22.9067L17.8249 12.0953L26.4672 12.0953L26.4672 15.8763L27.5475 15.8763L27.5475 11.015C20.8857 11.0069 14.2239 11.0002 7.56208 11.0002Z" fill="#2A3045"/>
<path fill-rule="evenodd" clip-rule="evenodd" d="M35.9197 1.26475L1.08029 1.26454V47.7434L29.438 47.7436L30.5182 47.21L35.3796 42.4073L35.9197 41.34V1.26475ZM37 42.1404L30.5182 48.8109L0 48.8107V0.197266L37 0.197478V42.1404Z" fill="#2A3045"/>
<path fill-rule="evenodd" clip-rule="evenodd" d="M35.3796 42.4073H30.5182V47.21L35.3796 42.4073ZM37 42.1404L30.5182 48.8109H29.438V41.34H37V42.1404Z" fill="#2A3045"/>
</svg>
