<svg width="74" height="74" viewBox="0 0 74 74" fill="none" xmlns="http://www.w3.org/2000/svg">
<path d="M15.1239 34.9811L9.38811 27.7746L23.659 16.4216L25.1897 15.2039L30.8347 22.4827L33.8598 20.8607L35.7234 22.5168L26.4992 29.8549L26.7471 33.5509L29.3189 35.3888L32.6701 35.146L40.6929 28.7636L55.9664 48.3114L57.2223 51.7073L54.2409 54.8637L51.9509 53.7252L51.0168 56.9137L47.6118 59.3528L45.2942 57.9111L44.8774 61.5717L43.7983 62.6562L42.5684 62.8538L38.9078 62.4369L38.1049 64.1696L36.9036 65.1253L33.8186 63.7114L31.8917 61.638L37.4985 57.9826L37.7722 56.1276L37.0656 54.1931L35.0344 53.0348L33.0695 54.0519L31.8798 53.6026L30.9027 51.3283L28.0729 50.5728L27.8946 47.8957L26.2728 45.857L24.2993 45.3362L23.84 42.7989L22.1959 40.7323L20.8588 41.0114L15.4068 44.5144L11.2751 38.8276L15.1239 34.9811Z" fill="#FF0000"/>
<path fill-rule="evenodd" clip-rule="evenodd" d="M24.9933 16.1449L10.097 27.9954L14.2064 33.1611L15.0664 34.2421L15.0664 34.2421L15.831 35.2031L15.8309 35.2031L15.8311 35.2033L14.87 35.9679L14.8699 35.9677L11.5154 38.6363L15.7204 43.9221L14.7593 44.6867L9.78977 38.4398L14.1053 35.0066L9.1359 28.76L8.37136 27.7989L9.33241 27.0344L24.2287 15.1839L25.1898 14.4193L25.9543 15.3804L30.9237 21.627L33.8161 19.3261L35.7275 21.7289L39.5626 18.6779C41.6857 16.989 44.7761 17.3409 46.465 19.4639L46.4651 19.464L46.4742 19.4568L52.2405 14.8695L53.2016 14.105L53.9661 15.066L65.4343 29.4818L66.1989 30.4428L65.2378 31.2074L59.4715 35.7947L59.4624 35.8019L62.9028 40.1266L63.6674 41.0877L62.7063 41.8522L55.979 47.204L56.7435 48.165C58.2214 50.0227 57.9134 52.7268 56.0558 54.2046C54.8322 55.178 53.2414 55.3767 51.8757 54.8681C52.0643 56.3132 51.513 57.8186 50.2894 58.7919C49.1017 59.7368 47.5681 59.9517 46.2301 59.4983C46.4231 60.8542 45.9126 62.2739 44.7634 63.1881C43.2279 64.4096 41.0699 64.3173 39.6463 63.0658C39.5026 63.837 39.0911 64.562 38.429 65.0887C36.9693 66.2499 34.8448 66.0079 33.6836 64.5483L32.3457 62.8666L28.982 65.5425L25.5414 61.2177L23.1388 63.129L19.6984 58.8044L19.6983 58.8044L14.7288 52.5576L14.7288 52.5575L10.906 47.7521L19.0749 41.2535C20.6673 39.9867 22.985 40.2507 24.2517 41.843C25.0785 42.8822 25.2532 44.2305 24.8322 45.3939C26.1083 45.2956 27.4089 45.8117 28.2657 46.8887C29.0671 47.8961 29.303 49.1715 29.017 50.3316C30.0726 50.1664 31.1845 50.5577 31.8973 51.4536L32.2795 51.9341C32.7099 52.475 32.9282 53.1164 32.946 53.758L33.4264 53.3758C34.7534 52.3202 36.6848 52.5401 37.7404 53.867L38.1227 54.3476C39.1783 55.6745 38.9584 57.6059 37.6315 58.6615L40.1162 61.7849C41.0663 62.9792 42.8046 63.1771 43.9988 62.2271C45.193 61.277 45.391 59.5387 44.441 58.3445L41.9562 55.221L38.5157 50.8963L37.7512 49.9352L38.7122 49.1707L39.8591 50.6123L45.2109 57.3396C46.2665 58.6666 48.1979 58.8865 49.5249 57.8309C50.8518 56.7753 51.0718 54.8439 50.0162 53.5169L44.6643 46.7895L44.282 46.309L43.5175 45.3479L43.5175 45.3479L42.3707 43.9063L43.3317 43.1418L50.9772 52.7523C52.0329 54.0793 53.9642 54.2992 55.2912 53.2435C56.6181 52.1879 56.8381 50.2565 55.7825 48.9295L55.018 47.9686L55.0179 47.9686L54.2534 47.0076L40.4915 29.7086L40.4915 29.7086L33.5238 35.2515C31.5334 36.835 28.6363 36.5051 27.0528 34.5147C25.4694 32.5243 25.7993 29.6271 27.7897 28.0436L34.7665 22.4934L33.6196 21.0517L31.6883 22.5881L31.6884 22.5883L30.7274 23.3528L29.9628 22.3918L29.1027 21.3106L24.9933 16.1449ZM58.1282 36.0787L57.7459 35.5982L58.707 34.8336L64.4733 30.2463L53.0051 15.8306L47.2387 20.4179L46.2777 21.1824L46.2777 21.1824L46.2686 21.1896L45.504 20.2285C44.2372 18.6362 41.9195 18.3722 40.3272 19.639L28.5543 29.0047C27.0946 30.1659 26.8527 32.2905 28.0139 33.7501C29.1751 35.2097 31.2997 35.4517 32.7593 34.2905L33.9607 33.3348L33.9606 33.3347L34.9217 32.5702L39.727 28.7474L40.688 27.9829L40.688 27.9829L40.6971 27.9757L41.4617 28.9368L41.4526 28.944L55.2145 46.243L61.9418 40.8912L58.1191 36.0859L58.1282 36.0787ZM12.6316 47.9486L15.6898 51.7928L22.8977 46.0587C23.9592 45.2142 24.1352 43.6691 23.2907 42.6075C22.4462 41.546 20.901 41.37 19.8395 42.2145L12.6316 47.9486ZM34.6446 63.7837L33.3067 62.102L36.6704 59.4261L38.0083 61.1078C38.7472 62.0367 38.5933 63.3887 37.6644 64.1276C36.7356 64.8666 35.3835 64.7126 34.6446 63.7837ZM23.422 47.2111C24.6162 46.261 26.3546 46.459 27.3046 47.6532C28.2501 48.8417 28.0586 50.5691 26.8796 51.522L19.8948 57.0787L16.4544 52.7541L23.422 47.2111ZM20.6594 58.0398L23.3353 61.4034L31.0237 55.287C31.8199 54.6537 31.9519 53.4948 31.3185 52.6986L30.9362 52.2181C30.3029 51.422 29.1439 51.29 28.3478 51.9234L27.6477 52.4803L27.627 52.4969L20.6594 58.0398ZM34.191 54.3368L26.5026 60.4532L29.1785 63.8169L36.8669 57.7005C37.663 57.0672 37.795 55.9083 37.1617 55.1121L36.7794 54.6316C36.146 53.8355 34.9871 53.7035 34.191 54.3368Z" fill="black"/>
</svg>
