<svg width="130" height="215" viewBox="0 0 130 215" fill="none" xmlns="http://www.w3.org/2000/svg">
<path opacity="0.1" d="M130 215H0V185.438C9.33624 176.573 18.1538 168.087 26.4527 159.977C34.7515 151.867 42.8618 143.428 50.7835 134.658C66.8154 117.024 77.7548 102.927 83.6017 92.3651C89.4487 81.7094 92.3721 70.7237 92.3721 59.4079C92.3721 53.5614 91.4291 48.4221 89.543 43.9901C87.7512 39.5581 85.2521 35.8805 82.0457 32.9572C78.745 30.1283 74.9256 28.0066 70.5876 26.5921C66.2495 25.1776 61.4871 24.4704 56.3003 24.4704C51.3021 24.4704 46.2096 25.1305 41.0229 26.4507C35.9304 27.6765 31.0265 29.2325 26.3112 31.1184C22.3504 32.7215 18.531 34.6546 14.8531 36.9178C11.1752 39.1809 8.20457 41.114 5.94124 42.7171H4.3852V12.7303C10.2321 9.80702 18.3424 6.97807 28.716 4.24342C39.1839 1.41447 49.086 0 58.4222 0C78.0377 0 93.4095 5.23355 104.538 15.7007C115.666 26.0735 121.23 40.1711 121.23 57.9934C121.23 66.1974 120.239 73.7884 118.259 80.7664C116.373 87.7445 113.732 94.2039 110.337 100.145C106.848 106.274 102.651 112.356 97.7476 118.391C92.8437 124.427 87.6569 130.367 82.1872 136.214C73.3225 145.832 63.4204 155.828 52.481 166.201C41.6358 176.573 32.9597 184.777 26.4527 190.812H130V215Z" fill="white"/>
</svg>
