<svg width="32" height="32" viewBox="0 0 32 32" fill="none" xmlns="http://www.w3.org/2000/svg">
<path d="M24.3796 4.26614C24.3796 4.15602 24.3367 4.05042 24.2605 3.97255C24.1842 3.89469 24.0807 3.85095 23.9728 3.85095H0.406777C0.298893 3.85095 0.195428 3.89469 0.119142 3.97255C0.0428567 4.05042 0 4.15602 0 4.26614V31.5842C0 31.6943 0.0428567 31.7999 0.119142 31.8777C0.195428 31.9556 0.298893 31.9993 0.406777 31.9993C0.514661 31.9993 0.618126 31.9556 0.694411 31.8777C0.770697 31.7999 0.813554 31.6943 0.813554 31.5842V4.67999H23.9728C24.0805 4.68 24.1838 4.63644 24.26 4.55886C24.3362 4.48128 24.3793 4.37602 24.3796 4.26614Z" fill="white"/>
<path d="M28.5424 0C26.6035 0 25.0848 1.05458 25.0848 2.40111V7.77895H23.9728V6.45035C23.9728 6.34024 23.93 6.23463 23.8537 6.15677C23.7774 6.07891 23.6739 6.03517 23.566 6.03517C23.4582 6.03517 23.3547 6.07891 23.2784 6.15677C23.2021 6.23463 23.1593 6.34024 23.1593 6.45035V7.77895H19.661V6.45035C19.661 6.34024 19.6181 6.23463 19.5418 6.15677C19.4656 6.07891 19.3621 6.03517 19.2542 6.03517C19.1463 6.03517 19.0429 6.07891 18.9666 6.15677C18.8903 6.23463 18.8474 6.34024 18.8474 6.45035V7.77895H15.3492V6.45035C15.3492 6.34024 15.3063 6.23463 15.23 6.15677C15.1537 6.07891 15.0503 6.03517 14.9424 6.03517C14.8345 6.03517 14.731 6.07891 14.6547 6.15677C14.5785 6.23463 14.5356 6.34024 14.5356 6.45035V7.77895H11.0373V6.45035C11.0373 6.34024 10.9945 6.23463 10.9182 6.15677C10.8419 6.07891 10.7384 6.03517 10.6305 6.03517C10.5227 6.03517 10.4192 6.07891 10.3429 6.15677C10.2666 6.23463 10.2238 6.34024 10.2238 6.45035V7.77895H6.72549V6.45035C6.72549 6.34024 6.68263 6.23463 6.60634 6.15677C6.53006 6.07891 6.42659 6.03517 6.31871 6.03517C6.21083 6.03517 6.10736 6.07891 6.03107 6.15677C5.95479 6.23463 5.91193 6.34024 5.91193 6.45035V7.77895H4.58324C4.47535 7.77895 4.37189 7.8227 4.2956 7.90056C4.21932 7.97842 4.17646 8.08403 4.17646 8.19414C4.17646 8.30426 4.21932 8.40986 4.2956 8.48772C4.37189 8.56559 4.47535 8.60933 4.58324 8.60933H5.91193V11.0174H3.14585C3.03797 11.0174 2.9345 11.0612 2.85821 11.139C2.78193 11.2169 2.73907 11.3225 2.73907 11.4326C2.73907 11.5427 2.78193 11.6483 2.85821 11.7262C2.9345 11.8041 3.03797 11.8478 3.14585 11.8478H5.91193V14.2559H3.14585C3.03797 14.2559 2.9345 14.2996 2.85821 14.3775C2.78193 14.4553 2.73907 14.561 2.73907 14.6711C2.73907 14.7812 2.78193 14.8868 2.85821 14.9647C2.9345 15.0425 3.03797 15.0863 3.14585 15.0863H5.91193V17.4943H3.14585C3.03797 17.4943 2.9345 17.5381 2.85821 17.6159C2.78193 17.6938 2.73907 17.7994 2.73907 17.9095C2.73907 18.0196 2.78193 18.1252 2.85821 18.2031C2.9345 18.281 3.03797 18.3247 3.14585 18.3247H5.91193V20.7328H3.14585C3.03797 20.7328 2.9345 20.7766 2.85821 20.8544C2.78193 20.9323 2.73907 21.0379 2.73907 21.148C2.73907 21.2581 2.78193 21.3637 2.85821 21.4416C2.9345 21.5194 3.03797 21.5632 3.14585 21.5632H5.91193V23.9713H3.14585C3.03797 23.9713 2.9345 24.015 2.85821 24.0929C2.78193 24.1707 2.73907 24.2763 2.73907 24.3865C2.73907 24.4966 2.78193 24.6022 2.85821 24.68C2.9345 24.7579 3.03797 24.8016 3.14585 24.8016H5.91193V27.2097H3.14585C3.03797 27.2097 2.9345 27.2535 2.85821 27.3313C2.78193 27.4092 2.73907 27.5148 2.73907 27.6249C2.73907 27.735 2.78193 27.8406 2.85821 27.9185C2.9345 27.9964 3.03797 28.0401 3.14585 28.0401H5.91193V29.4517C5.91193 29.5619 5.95479 29.6675 6.03107 29.7453C6.10736 29.8232 6.21083 29.8669 6.31871 29.8669C6.42659 29.8669 6.53006 29.8232 6.60634 29.7453C6.68263 29.6675 6.72549 29.5619 6.72549 29.4517V28.0401H10.2238V29.4517C10.2238 29.5619 10.2666 29.6675 10.3429 29.7453C10.4192 29.8232 10.5227 29.8669 10.6305 29.8669C10.7384 29.8669 10.8419 29.8232 10.9182 29.7453C10.9945 29.6675 11.0373 29.5619 11.0373 29.4517V28.0401H14.5356V29.4517C14.5356 29.5619 14.5785 29.6675 14.6547 29.7453C14.731 29.8232 14.8345 29.8669 14.9424 29.8669C15.0503 29.8669 15.1537 29.8232 15.23 29.7453C15.3063 29.6675 15.3492 29.5619 15.3492 29.4517V28.0401H18.8474V29.4517C18.8474 29.5619 18.8903 29.6675 18.9666 29.7453C19.0429 29.8232 19.1463 29.8669 19.2542 29.8669C19.3621 29.8669 19.4656 29.8232 19.5418 29.7453C19.6181 29.6675 19.661 29.5619 19.661 29.4517V28.0401H26.2547C26.9524 28.4406 27.742 28.6441 28.5424 28.6297C29.4014 28.6491 30.2473 28.4121 30.9762 27.9478C30.6862 28.8816 30.1128 29.697 29.3388 30.2762C28.5647 30.8554 27.6303 31.1683 26.6706 31.1696H1.88484C1.77696 31.1696 1.67349 31.2134 1.59721 31.2912C1.52092 31.3691 1.47806 31.4747 1.47806 31.5848C1.47806 31.6949 1.52092 31.8005 1.59721 31.8784C1.67349 31.9563 1.77696 32 1.88484 32H26.6706C28.0834 31.998 29.4378 31.4242 30.4369 30.4045C31.4359 29.3849 31.998 28.0024 32 26.5604C31.9975 26.5308 31.9917 26.5016 31.9828 26.4734C31.9941 26.3925 31.9999 26.3109 32 26.2292C32 24.883 30.4813 23.8284 28.5424 23.8284C27.5939 23.7997 26.6632 24.0955 25.8983 24.6688V12.9897C25.8983 12.8796 25.8555 12.774 25.7792 12.6961C25.7029 12.6183 25.5995 12.5745 25.4916 12.5745C25.3837 12.5745 25.2802 12.6183 25.2039 12.6961C25.1276 12.774 25.0848 12.8796 25.0848 12.9897V14.2559H23.9728V11.8478H25.4916C25.5995 11.8478 25.7029 11.8041 25.7792 11.7262C25.8555 11.6483 25.8983 11.5427 25.8983 11.4326V2.40078C25.8983 1.54948 27.1092 0.830375 28.5424 0.830375C29.9756 0.830375 31.1864 1.54981 31.1864 2.40111V21.4801C31.1864 21.5903 31.2293 21.6959 31.3056 21.7737C31.3819 21.8516 31.4853 21.8953 31.5932 21.8953C31.7011 21.8953 31.8046 21.8516 31.8809 21.7737C31.9571 21.6959 32 21.5903 32 21.4801V2.40078C32 1.05292 30.4813 0 28.5424 0ZM23.1593 8.60933V11.0174H19.661V8.60933H23.1593ZM6.72549 8.60933H10.2238V11.0174H6.72549V8.60933ZM6.72549 27.2097V24.8016H10.2238V27.2097H6.72549ZM23.1593 24.8016V27.2097H19.661V24.8016H23.1593ZM25.0848 20.7328H23.9728V18.3247H25.0848V20.7328ZM25.0848 21.5632V23.9713H23.9728V21.5632H25.0848ZM25.0848 24.8016V26.2299C25.0872 26.5789 25.189 26.9197 25.3777 27.2107H23.9728V24.8016H25.0848ZM28.5424 24.6585C29.9743 24.6585 31.1864 25.3776 31.1864 26.2289C31.1864 27.0802 29.9756 27.7996 28.5424 27.7996C27.1092 27.7996 25.8983 27.0802 25.8983 26.2299C25.8983 25.3796 27.1092 24.6585 28.5424 24.6585ZM25.0848 15.0863V17.4943H23.9728V15.0863H25.0848ZM23.1593 14.2559H19.2741C19.1662 14.2559 19.0627 14.2996 18.9864 14.3775C18.9101 14.4553 18.8673 14.561 18.8673 14.6711C18.8673 14.7812 18.9101 14.8868 18.9864 14.9647C19.0627 15.0425 19.1662 15.0863 19.2741 15.0863H23.1593V17.4943H21.2067C21.0989 17.4943 20.9954 17.5381 20.9191 17.6159C20.8428 17.6938 20.8 17.7994 20.8 17.9095C20.8 18.0196 20.8428 18.1252 20.9191 18.2031C20.9954 18.281 21.0989 18.3247 21.2067 18.3247H23.1593V20.7328H20.7186C20.6107 20.7328 20.5073 20.7766 20.431 20.8544C20.3547 20.9323 20.3118 21.0379 20.3118 21.148C20.3118 21.2581 20.3547 21.3637 20.431 21.4416C20.5073 21.5194 20.6107 21.5632 20.7186 21.5632H23.1593V23.9713H13.5593C13.4515 23.9713 13.348 24.015 13.2717 24.0929C13.1954 24.1707 13.1526 24.2763 13.1526 24.3865C13.1526 24.4966 13.1954 24.6022 13.2717 24.68C13.348 24.7579 13.4515 24.8016 13.5593 24.8016H18.8474V27.2097H15.3492V26.0057C15.3492 25.8956 15.3063 25.79 15.23 25.7121C15.1537 25.6342 15.0503 25.5905 14.9424 25.5905C14.8345 25.5905 14.731 25.6342 14.6547 25.7121C14.5785 25.79 14.5356 25.8956 14.5356 26.0057V27.2097H11.0373V24.8016H11.9322C12.0401 24.8016 12.1436 24.7579 12.2199 24.68C12.2962 24.6022 12.339 24.4966 12.339 24.3865C12.339 24.2763 12.2962 24.1707 12.2199 24.0929C12.1436 24.015 12.0401 23.9713 11.9322 23.9713H6.72549V21.5632H8.75937C8.86725 21.5632 8.97072 21.5194 9.04701 21.4416C9.12329 21.3637 9.16615 21.2581 9.16615 21.148C9.16615 21.0379 9.12329 20.9323 9.04701 20.8544C8.97072 20.7766 8.86725 20.7328 8.75937 20.7328H6.72549V18.3247H7.74243C7.85031 18.3247 7.95378 18.281 8.03006 18.2031C8.10635 18.1252 8.14921 18.0196 8.14921 17.9095C8.14921 17.7994 8.10635 17.6938 8.03006 17.6159C7.95378 17.5381 7.85031 17.4943 7.74243 17.4943H6.72549V15.0863H8.55598C8.66387 15.0863 8.76733 15.0425 8.84362 14.9647C8.9199 14.8868 8.96276 14.7812 8.96276 14.6711C8.96276 14.561 8.9199 14.4553 8.84362 14.3775C8.76733 14.2996 8.66387 14.2559 8.55598 14.2559H6.72549V11.8478H10.2238V13.5501C10.2238 13.6602 10.2666 13.7658 10.3429 13.8436C10.4192 13.9215 10.5227 13.9652 10.6305 13.9652C10.7384 13.9652 10.8419 13.9215 10.9182 13.8436C10.9945 13.7658 11.0373 13.6602 11.0373 13.5501V11.8478H16C16.1079 11.8478 16.2113 11.8041 16.2876 11.7262C16.3639 11.6483 16.4068 11.5427 16.4068 11.4326C16.4068 11.3225 16.3639 11.2169 16.2876 11.139C16.2113 11.0612 16.1079 11.0174 16 11.0174H11.0373V8.60933H14.5356V9.93793C14.5356 10.048 14.5785 10.1536 14.6547 10.2315C14.731 10.3094 14.8345 10.3531 14.9424 10.3531C15.0503 10.3531 15.1537 10.3094 15.23 10.2315C15.3063 10.1536 15.3492 10.048 15.3492 9.93793V8.60933H18.8474V11.0174H17.6271C17.5192 11.0174 17.4158 11.0612 17.3395 11.139C17.2632 11.2169 17.2203 11.3225 17.2203 11.4326C17.2203 11.5427 17.2632 11.6483 17.3395 11.7262C17.4158 11.8041 17.5192 11.8478 17.6271 11.8478H18.8474V12.5951C18.8474 12.7052 18.8903 12.8109 18.9666 12.8887C19.0429 12.9666 19.1463 13.0103 19.2542 13.0103C19.3621 13.0103 19.4656 12.9666 19.5418 12.8887C19.6181 12.8109 19.661 12.7052 19.661 12.5951V11.8478H23.1593V14.2559ZM23.9728 8.60933H25.0848V11.0174H23.9728V8.60933Z" fill="white"/>
<path d="M31.5932 22.5596C31.4853 22.5596 31.3819 22.6034 31.3056 22.6812C31.2293 22.7591 31.1864 22.8647 31.1864 22.9748V23.2405C31.1864 23.3507 31.2293 23.4563 31.3056 23.5341C31.3819 23.612 31.4853 23.6557 31.5932 23.6557C31.7011 23.6557 31.8046 23.612 31.8809 23.5341C31.9571 23.4563 32 23.3507 32 23.2405V22.9748C32 22.8647 31.9571 22.7591 31.8809 22.6812C31.8046 22.6034 31.7011 22.5596 31.5932 22.5596Z" fill="white"/>
<path d="M13.9017 12.7087L9.15703 16.3883C9.04965 16.4717 8.97062 16.5874 8.93107 16.7191C8.89151 16.8508 8.89343 16.9919 8.93655 17.1224C8.97967 17.2529 9.06182 17.3664 9.17143 17.4468C9.28104 17.5271 9.41258 17.5704 9.54754 17.5704H10.2238V22.165C10.2238 22.2752 10.2666 22.3808 10.3429 22.4586C10.4192 22.5365 10.5227 22.5802 10.6305 22.5802H17.9525C18.0604 22.5802 18.1639 22.5365 18.2402 22.4586C18.3164 22.3808 18.3593 22.2752 18.3593 22.165V17.8195C18.3593 17.7094 18.3164 17.6038 18.2402 17.5259C18.1639 17.4481 18.0604 17.4043 17.9525 17.4043C17.8446 17.4043 17.7412 17.4481 17.6649 17.5259C17.5886 17.6038 17.5458 17.7094 17.5458 17.8195V21.7498H11.0373V17.1552C11.0373 17.0451 10.9945 16.9395 10.9182 16.8616C10.8419 16.7838 10.7384 16.74 10.6305 16.74H10.048L14.2915 13.4491L18.934 17.0493C18.9764 17.0838 19.0251 17.1094 19.0773 17.1245C19.1295 17.1395 19.1842 17.1438 19.238 17.137C19.2919 17.1301 19.3438 17.1124 19.3909 17.0848C19.4379 17.0572 19.479 17.0202 19.5118 16.9761C19.5447 16.932 19.5685 16.8817 19.582 16.828C19.5955 16.7744 19.5983 16.7185 19.5903 16.6637C19.5823 16.609 19.5636 16.5564 19.5354 16.5091C19.5072 16.4618 19.47 16.4207 19.426 16.3883L14.6814 12.7084C14.5691 12.6219 14.4322 12.5751 14.2915 12.5752C14.1508 12.5753 14.0139 12.6221 13.9017 12.7087Z" fill="white"/>
<path d="M3.14585 7.77895C3.03797 7.77895 2.9345 7.8227 2.85822 7.90056C2.78193 7.97842 2.73907 8.08403 2.73907 8.19414C2.73907 8.30426 2.78193 8.40986 2.85822 8.48772C2.9345 8.56559 3.03797 8.60933 3.14585 8.60933H3.41693C3.52481 8.60933 3.62827 8.56559 3.70456 8.48772C3.78085 8.40986 3.8237 8.30426 3.8237 8.19414C3.8237 8.08403 3.78085 7.97842 3.70456 7.90056C3.62827 7.8227 3.52481 7.77895 3.41693 7.77895H3.14585Z" fill="white"/>
<path d="M23.9728 29.4517V29.0645C23.9728 28.9543 23.93 28.8487 23.8537 28.7709C23.7774 28.693 23.6739 28.6493 23.566 28.6493C23.4582 28.6493 23.3547 28.693 23.2784 28.7709C23.2021 28.8487 23.1593 28.9543 23.1593 29.0645V29.4517C23.1593 29.5619 23.2021 29.6675 23.2784 29.7453C23.3547 29.8232 23.4582 29.8669 23.566 29.8669C23.6739 29.8669 23.7774 29.8232 23.8537 29.7453C23.93 29.6675 23.9728 29.5619 23.9728 29.4517Z" fill="white"/>
</svg>
