<svg width="32" height="32" viewBox="0 0 32 32" fill="none" xmlns="http://www.w3.org/2000/svg">
<path d="M23.4979 25.3519V20.2253C23.4978 19.4569 22.8669 18.8318 22.0915 18.8318H3.9531C3.17765 18.8318 2.54671 19.4569 2.54671 20.2253V25.3519C1.96579 25.5476 1.54647 26.093 1.54647 26.734C1.54647 27.5389 2.20737 28.1938 3.01959 28.1938H23.0249C23.8372 28.1938 24.4981 27.5389 24.4981 26.734C24.4981 26.093 24.0788 25.5476 23.4979 25.3519ZM3.49252 20.2253C3.49252 19.9736 3.69909 19.7689 3.9531 19.7689H22.0915C22.3454 19.7689 22.5521 19.9736 22.5521 20.2253V25.2743H3.49252V20.2253ZM23.0249 27.2566H3.01965C2.72894 27.2566 2.49234 27.0221 2.49234 26.734C2.49234 26.4459 2.72894 26.2115 3.01965 26.2115H23.025C23.3157 26.2115 23.5523 26.4459 23.5523 26.734C23.5522 27.0221 23.3157 27.2566 23.0249 27.2566Z" fill="white"/>
<path d="M24.4347 20.6287H24.0237V21.5659H24.4347C24.9695 21.5659 24.9695 21.6926 24.9695 21.8679V28.1309C24.9695 28.5579 24.6796 29.0634 24.4347 29.0634H1.60986C1.33057 29.0634 0.945809 28.5231 0.945809 28.1309V21.868C0.945809 21.77 0.945809 21.5659 1.60986 21.5659H2.01777V20.6287H1.60986C1.18922 20.6287 0.843123 20.7038 0.581173 20.8518C0.206381 21.0636 0 21.4245 0 21.8681V28.1311C0 28.5248 0.16349 28.9756 0.437362 29.3369C0.757089 29.7588 1.18455 30.0007 1.60992 30.0007H2.01783V32H2.96364V30.0006H23.5194V32H24.4652V29.9995C25.3992 29.9761 25.9155 28.8869 25.9155 28.1309V21.868C25.9153 21.4051 25.7229 20.6287 24.4347 20.6287Z" fill="white"/>
<path d="M6.05299 21.6286H5.0441V22.5658H6.05299V21.6286Z" fill="white"/>
<path d="M21.0599 21.6286H19.988V22.5658H21.0599V21.6286Z" fill="white"/>
<path d="M13.5564 21.6286H12.5476V22.5658H13.5564V21.6286Z" fill="white"/>
<path d="M0.0460447 10.8486H15.4957V0H0.0460447V10.8486ZM0.991854 0.937187H14.5499V9.91144H0.991854V0.937187Z" fill="white"/>
<path d="M1.54647 1.48669V9.36194H13.9953V1.48669H1.54647ZM13.0495 8.42475H2.49228V2.42388H13.0494V8.42475H13.0495Z" fill="white"/>
<path d="M16.0503 10.9026V17.7867H24.9982V10.9026H16.0503ZM24.0524 16.8495H16.9961V11.8398H24.0524V16.8495Z" fill="white"/>
<path d="M17.5506 12.3893V16.2999H23.4978V12.3893H17.5506ZM22.552 15.3628H18.4965V13.3266H22.552V15.3628Z" fill="white"/>
<path d="M20.5243 1.98231C18.333 1.98231 16.5505 3.74869 16.5505 5.91988C16.5505 8.09113 18.3331 9.85744 20.5243 9.85744C22.7154 9.85744 24.4981 8.091 24.4981 5.91988C24.4981 3.74869 22.7155 1.98231 20.5243 1.98231ZM20.9971 8.88356V8.38275H20.0513V8.8835C18.7791 8.68488 17.7683 7.69844 17.5438 6.44588H18.0966V5.50863H17.5254C17.7071 4.20187 18.7405 3.16094 20.0513 2.95631V3.63419H20.9971V2.95637C22.3079 3.16094 23.3415 4.20194 23.5231 5.50869H22.8887V6.44588H23.5048C23.2802 7.6985 22.2694 8.685 20.9971 8.88356Z" fill="white"/>
<path d="M20.0513 4.384V5.50863H18.4749V6.44581H20.9971V4.384H20.0513Z" fill="white"/>
<path d="M29.5094 29.5469V18.5044H28.5636V29.5469H26.0529V31.9708H32V29.5469H29.5094ZM31.0543 31.0337H26.9988V30.4842H31.0543V31.0337Z" fill="white"/>
<path d="M27.0532 6.44244V17.2911H28.5636V18.067H29.5094V17.2911H30.9998V6.44244H27.0532ZM30.054 14.8806H28.5636V15.8178H30.054V16.3539H27.999V7.37962H30.054V14.8806Z" fill="white"/>
<path d="M6.68614 3.60645L5.68594 4.59754L6.35472 5.26023L7.35492 4.26914L6.68614 3.60645Z" fill="white"/>
<path d="M9.18678 3.11073L5.68592 6.57967L6.3547 7.24236L9.85556 3.77342L9.18678 3.11073Z" fill="white"/>
<path d="M9.18659 5.58885L8.18639 6.57994L8.85517 7.24263L9.85538 6.25154L9.18659 5.58885Z" fill="white"/>
</svg>
