<svg width="32" height="32" viewBox="0 0 32 32" fill="none" xmlns="http://www.w3.org/2000/svg">
<path d="M9.785 7.48303C11.8696 7.95931 14.0101 8.20109 16.1465 8.20109C18.2829 8.20109 20.423 7.95974 22.5197 7.48004C22.7211 7.42835 22.8548 7.23271 22.8331 7.02169C22.531 4.05804 20.4443 1.63518 17.8003 0.903448V0.427162C17.8003 0.191369 17.6135 0 17.3824 0C17.1514 0 16.9646 0.191369 16.9646 0.427162V0.732583C16.6947 0.696274 16.4223 0.671072 16.1452 0.671072C15.8691 0.671072 15.5975 0.696274 15.3284 0.732156V0.427162C15.3284 0.191369 15.1416 0 14.9105 0C14.6795 0 14.4927 0.191369 14.4927 0.427162V0.903021C11.8495 1.6339 9.76202 4.05719 9.45993 7.02169C9.43779 7.23698 9.57776 7.43561 9.785 7.48303ZM14.4927 1.78938V2.95724C14.4927 3.19304 14.6795 3.38441 14.9105 3.38441C15.1416 3.38441 15.3284 3.19304 15.3284 2.95724V1.5946C15.5975 1.55316 15.8703 1.5254 16.1477 1.5254C16.4243 1.5254 16.6964 1.55273 16.9646 1.59417V2.95682C16.9646 3.19261 17.1514 3.38398 17.3824 3.38398C17.6135 3.38398 17.8003 3.19261 17.8003 2.95682V1.78896C19.9045 2.46259 21.5691 4.37457 21.9523 6.73165C18.1354 7.54796 14.1405 7.54539 10.3411 6.73165C10.7235 4.37499 12.3877 2.46344 14.4927 1.78938ZM16.1465 6.55822C15.2782 6.55822 14.4079 6.45997 13.5597 6.26604C13.3345 6.21435 13.1924 5.98625 13.2426 5.75601C13.2931 5.52577 13.5175 5.38182 13.741 5.43222C15.32 5.79275 16.9767 5.79232 18.5511 5.43222C18.7792 5.38139 18.9999 5.52577 19.05 5.75601C19.1006 5.98625 18.9585 6.21478 18.7337 6.26604C17.8859 6.45997 17.0156 6.55822 16.1465 6.55822ZM9.17873 9.41337C9.18709 9.13614 9.2109 8.29207 9.80381 8.06354C10.3863 7.83885 10.9859 8.44585 11.0999 8.57015C11.2574 8.74273 11.2483 9.01312 11.0799 9.17416C10.9127 9.3352 10.6478 9.32666 10.4895 9.15409C10.3737 9.02893 10.2003 8.90377 10.108 8.87472C10.08 8.92982 10.0248 9.08189 10.0144 9.439C9.97219 10.9012 11.0632 11.31 11.1095 11.3266C11.2391 11.3732 11.3414 11.4825 11.3778 11.618L11.3957 11.685C11.4024 11.7102 11.4066 11.7359 11.4087 11.7623C11.7288 15.6563 14.7388 16.916 16.1465 16.916C17.5542 16.916 20.5642 15.6563 20.8843 11.7623C20.8864 11.7359 20.891 11.7102 20.8972 11.685L20.9152 11.618C20.9524 11.4804 21.0539 11.3706 21.186 11.3254C21.2294 11.3095 22.3204 10.9008 22.2782 9.43857C22.2681 9.08232 22.2134 8.93025 22.1846 8.87472C22.0918 8.90462 21.9138 9.0332 21.8031 9.15409C21.6447 9.32623 21.3803 9.33477 21.2127 9.17416C21.0443 9.01312 21.0351 8.74273 21.1926 8.57015C21.3059 8.44542 21.9055 7.83885 22.4888 8.06354C23.0817 8.2925 23.1059 9.13614 23.1138 9.41337C23.156 10.8879 22.3103 11.7085 21.6982 12.0276C21.2804 15.9861 18.2231 17.7695 16.1461 17.7695C14.069 17.7695 11.0118 15.9861 10.5939 12.0276C9.98222 11.7081 9.13695 10.8879 9.17873 9.41337ZM31.5077 24.5644C31.1345 24.1808 30.5504 23.9946 29.7218 23.9946C28.8933 23.9946 28.3087 24.1812 27.936 24.5644C27.4371 25.0774 27.4405 25.7972 27.4442 26.4319L27.4447 29.3964C27.4447 30.6801 28.4663 31.7245 29.7218 31.7245C30.9774 31.7245 31.999 30.6801 31.999 29.3964L31.9994 26.4319C32.0028 25.7972 32.0065 25.0774 31.5077 24.5644ZM31.1634 26.4272L31.1629 29.3964C31.1629 30.2089 30.5161 30.8702 29.7214 30.8702C29.1356 30.8702 28.6326 30.5096 28.4073 29.9958H29.2585C29.4895 29.9958 29.6763 29.8044 29.6763 29.5686C29.6763 29.3328 29.4895 29.1414 29.2585 29.1414H28.2799V28.4204H29.2585C29.4895 28.4204 29.6763 28.229 29.6763 27.9932C29.6763 27.7574 29.4895 27.5661 29.2585 27.5661H28.2799V26.7882H29.2589C29.4899 26.7882 29.6767 26.5968 29.6767 26.361C29.6767 26.1252 29.4899 25.9339 29.2589 25.9339H28.287C28.3041 25.6173 28.3585 25.3418 28.5281 25.1671C28.7333 24.9561 29.1348 24.8489 29.7214 24.8489C30.3081 24.8489 30.7096 24.9557 30.9148 25.1671C31.1688 25.4277 31.1663 25.9134 31.1634 26.4272ZM2.42991 23.7079C1.54327 23.7079 0.919452 23.9061 0.522512 24.3141C-0.00729897 24.8587 -0.00312068 25.6297 0.000639802 26.3098L0.00105763 29.5165C0.00105763 30.886 1.09076 32 2.42991 32C3.76948 32 4.85919 30.886 4.85919 29.5165L4.8596 26.3098C4.86336 25.6297 4.86754 24.8587 4.33773 24.3141C3.94079 23.9066 3.31697 23.7079 2.42991 23.7079ZM2.42991 31.1461C1.55121 31.1461 0.836721 30.4152 0.836721 29.5169L0.835885 26.3055C0.83296 25.7421 0.830036 25.2094 1.115 24.9168C1.34397 24.6819 1.78603 24.5623 2.42991 24.5623C3.07421 24.5623 3.51669 24.6814 3.74525 24.9168C3.9433 25.1206 4.00096 25.4405 4.01767 25.8057H2.93089C2.69983 25.8057 2.51306 25.9971 2.51306 26.2329C2.51306 26.4687 2.69983 26.66 2.93089 26.66H4.02436L4.02394 27.5716H2.93089C2.69983 27.5716 2.51306 27.763 2.51306 27.9988C2.51306 28.2346 2.69983 28.4259 2.93089 28.4259H4.02394L4.02352 29.276H2.93089C2.69983 29.276 2.51306 29.4674 2.51306 29.7031C2.51306 29.9389 2.69983 30.1303 2.93089 30.1303H3.90444C3.66669 30.7249 3.09635 31.1461 2.42991 31.1461ZM5.30794 22.9617C5.24652 23.136 5.08607 23.2445 4.91476 23.2445C4.86796 23.2445 4.81991 23.2363 4.77311 23.2188C4.55584 23.1389 4.44344 22.8942 4.52116 22.6725C5.50515 19.8763 7.92649 17.4111 10.7343 16.315L10.7155 15.9618C10.703 15.7264 10.8793 15.5248 11.1095 15.512C11.3381 15.5004 11.537 15.6794 11.5495 15.9152L11.6561 17.9036L12.8686 17.3219C13.0775 17.2215 13.327 17.3137 13.4243 17.5269C13.5221 17.7405 13.4327 17.9946 13.2238 18.095L11.4505 18.9464C11.3941 18.9733 11.3335 18.9869 11.2729 18.9869C11.1985 18.9869 11.1246 18.9669 11.0586 18.9263C10.9395 18.8537 10.863 18.7247 10.8559 18.5828L10.7824 17.2104C8.30003 18.2655 6.18288 20.4735 5.30794 22.9617ZM27.3682 23.2188C27.3214 23.2359 27.2734 23.2445 27.2266 23.2445C27.0552 23.2445 26.8948 23.136 26.8334 22.9617C25.9267 20.3855 23.934 18.2219 21.5641 17.2057L21.4901 18.5833C21.4826 18.7251 21.4066 18.8537 21.2875 18.9267C21.2219 18.9669 21.1475 18.9874 21.0731 18.9874C21.0126 18.9874 20.952 18.9741 20.8956 18.9468L19.1223 18.0954C18.9134 17.9951 18.8235 17.7405 18.9217 17.5273C19.0199 17.3142 19.2689 17.2215 19.4774 17.3223L20.69 17.9041L20.7965 15.9156C20.8087 15.6803 21.0088 15.5017 21.2365 15.5124C21.4672 15.5252 21.6435 15.7268 21.6305 15.9622L21.6117 16.3099C24.3122 17.3654 26.6006 19.778 27.6197 22.6729C27.6983 22.8946 27.5855 23.1389 27.3682 23.2188ZM16.1465 18.6661C16.3776 18.6661 16.5643 18.8575 16.5643 19.0933V22.247C16.5643 22.4828 16.3776 22.6742 16.1465 22.6742C15.9154 22.6742 15.7287 22.4828 15.7287 22.247V19.0933C15.7287 18.8571 15.9154 18.6661 16.1465 18.6661ZM26.6236 23.6708C26.6236 23.9066 26.4369 24.0979 26.2058 24.0979H6.08719C5.85613 24.0979 5.66936 23.9066 5.66936 23.6708C5.66936 23.435 5.85613 23.2436 6.08719 23.2436H26.2058C26.4369 23.2436 26.6236 23.435 26.6236 23.6708ZM26.2058 27.6579H6.08719C5.85613 27.6579 5.66936 27.8493 5.66936 28.0851C5.66936 28.3209 5.85613 28.5122 6.08719 28.5122H6.77996V31.431C6.77996 31.6668 6.96673 31.8582 7.19779 31.8582H25.0952C25.3263 31.8582 25.513 31.6668 25.513 31.431V28.5122H26.2058C26.4369 28.5122 26.6236 28.3209 26.6236 28.0851C26.6236 27.8493 26.4369 27.6579 26.2058 27.6579ZM7.61562 28.5122H15.7287V31.0039H7.61562V28.5122ZM24.6774 31.0039H16.5643V28.5122H24.6774V31.0039ZM10.624 25.8061C10.624 24.9963 9.97971 24.3376 9.1875 24.3376C8.39571 24.3376 7.75142 24.9963 7.75142 25.8061C7.75142 26.616 8.39571 27.2743 9.1875 27.2743C9.97971 27.2747 10.624 26.616 10.624 25.8061ZM9.18792 25.1923C9.44531 25.1923 9.66383 25.3598 9.74907 25.593H8.62719C8.71201 25.3593 8.93012 25.1923 9.18792 25.1923ZM8.62677 26.0197H9.74865C9.66342 26.253 9.44531 26.4204 9.1875 26.4204C8.93012 26.4204 8.71201 26.253 8.62677 26.0197ZM24.646 25.8061C24.646 24.9963 24.0017 24.3376 23.2095 24.3376C22.4173 24.3376 21.773 24.9963 21.773 25.8061C21.773 26.616 22.4173 27.2743 23.2095 27.2743C24.0017 27.2743 24.646 26.616 24.646 25.8061ZM23.2095 25.1923C23.4669 25.1923 23.6854 25.3598 23.7707 25.593H22.6488C22.734 25.3593 22.9521 25.1923 23.2095 25.1923ZM22.6488 26.0197H23.7707C23.6854 26.253 23.4673 26.4204 23.2095 26.4204C22.9517 26.4204 22.734 26.253 22.6488 26.0197ZM5.66936 26.8476V24.7652C5.66936 24.5294 5.85613 24.338 6.08719 24.338C6.31825 24.338 6.50503 24.5294 6.50503 24.7652V26.8476C6.50503 27.0834 6.31825 27.2747 6.08719 27.2747C5.85613 27.2747 5.66936 27.0834 5.66936 26.8476ZM26.6236 24.7652V26.8476C26.6236 27.0834 26.4369 27.2747 26.2058 27.2747C25.9747 27.2747 25.788 27.0834 25.788 26.8476V24.7652C25.788 24.5294 25.9747 24.338 26.2058 24.338C26.4369 24.338 26.6236 24.5289 26.6236 24.7652ZM18.9176 26.9104C19.4503 26.9104 19.884 26.467 19.884 25.9223C19.884 25.3777 19.4507 24.9343 18.9176 24.9343H13.3754C12.8427 24.9343 12.4094 25.3777 12.4094 25.9223C12.4094 26.467 12.8427 26.9104 13.3754 26.9104H18.9176ZM13.2451 25.9223C13.2451 25.8489 13.304 25.7886 13.3754 25.7886H18.9176C18.9894 25.7886 19.0483 25.8484 19.0483 25.9223C19.0483 25.9962 18.9894 26.056 18.9176 26.056H13.3754C13.3036 26.056 13.2451 25.9958 13.2451 25.9223ZM16.6053 10.1797C16.8363 10.1797 17.0231 10.3711 17.0231 10.6069V13.1583C17.0231 13.3941 16.8363 13.5855 16.6053 13.5855H15.6881C15.4571 13.5855 15.2703 13.3941 15.2703 13.1583C15.2703 12.9225 15.4571 12.7311 15.6881 12.7311H16.1874V10.6069C16.1874 10.3706 16.3742 10.1797 16.6053 10.1797Z" fill="white"/>
</svg>
