<svg width="44" height="46" viewBox="0 0 44 46" fill="none" xmlns="http://www.w3.org/2000/svg">
<path fill-rule="evenodd" clip-rule="evenodd" d="M20.0167 22.4248L20.8542 21.9453L21.3535 22.8175L20.516 23.2969L20.0167 22.4248ZM16.6669 24.3426L18.3418 23.3836L18.8411 24.2558L17.1662 25.2147L16.6669 24.3426ZM13.3171 26.2603L14.992 25.3014L15.4913 26.1736L13.8164 27.1324L13.3171 26.2603ZM9.96726 28.1781L11.6422 27.2192L12.1415 28.0913L10.4666 29.0502L9.96726 28.1781ZM6.61742 30.0959L8.29236 29.137L8.79167 30.0091L7.11673 30.968L6.61742 30.0959ZM3.26762 32.0136L4.94253 31.0548L5.44183 31.9269L3.76691 32.8858L3.26762 32.0136ZM0.755249 33.452L1.59271 32.9725L2.092 33.8447L1.25455 34.3241L0.755249 33.452Z" fill="#FF0000"/>
<path fill-rule="evenodd" clip-rule="evenodd" d="M23.7754 22.4574L22.8961 21.9675L22.3265 22.7955L23.2059 23.2854L23.7754 22.4574ZM27.2927 24.4171L25.5341 23.4373L24.9645 24.2652L26.7232 25.2451L27.2927 24.4171ZM30.81 26.3767L29.0514 25.3969L28.4818 26.2249L30.2405 27.2047L30.81 26.3767ZM34.3274 28.3364L32.5687 27.3566L31.9992 28.1845L33.7578 29.1644L34.3274 28.3364ZM37.8447 30.296L36.086 29.3162L35.5165 30.1442L37.2751 31.124L37.8447 30.296ZM41.362 32.2557L39.6033 31.2758L39.0338 32.1038L40.7924 33.0836L41.362 32.2557ZM44 33.7254L43.1206 33.2355L42.5511 34.0635L43.4304 34.5534L44 33.7254Z" fill="#FF0000"/>
<path fill-rule="evenodd" clip-rule="evenodd" d="M21.6064 0.222412L43.7152 11.5281L21.6064 22.8337L0 11.5281L21.6064 0.222412ZM21.6119 1.2196L1.91124 11.5281L21.6119 21.8365L41.7706 11.5281L21.6119 1.2196Z" fill="black"/>
<path d="M21.1039 21.8286H22.1088V44.9424H21.1039V21.8286Z" fill="black"/>
<path d="M42.7102 11.7793L43.7152 11.5281V34.3906H42.7102V11.7793Z" fill="#2A3045"/>
<path d="M0 11.5281L1.00495 12.0305V34.3906H0V11.5281Z" fill="#2A3045"/>
<path fill-rule="evenodd" clip-rule="evenodd" d="M21.1039 2.14849V1.22729H22.1088V2.14849H21.1039ZM21.1039 5.83332V3.9909H22.1088V5.83332H21.1039ZM21.1039 9.51811V7.67569H22.1088V9.51811H21.1039ZM21.1039 13.2029V11.3605H22.1088V13.2029H21.1039ZM21.1039 16.8877V15.0453H22.1088V16.8877H21.1039ZM21.1039 20.5725V18.7301H22.1088V20.5725H21.1039ZM21.1039 23.3361V22.4149H22.1088V23.3361H21.1039Z" fill="black"/>
<path fill-rule="evenodd" clip-rule="evenodd" d="M43.2346 34.1394H42.2078L21.6119 44.4478L1.75866 34.1394H0.469704L0 34.3906L21.6064 45.4451L43.7152 34.3906L43.2346 34.1394Z" fill="black"/>
</svg>
